<svg xmlns="http://www.w3.org/2000/svg" viewBox="0 0 620 420" font-family="'SF Mono','Menlo','Consolas','Monaco',monospace" font-size="13">
  <style>
    @keyframes blink { 0%,100%{opacity:1} 50%{opacity:0} }
    @keyframes frame1 { 0%,14%{opacity:1} 14.1%,100%{opacity:0} }
    @keyframes frame2 { 14.1%,28%{opacity:1} 28.1%,100%{opacity:0} }
    @keyframes frame3 { 28.1%,42%{opacity:1} 42.1%,100%{opacity:0} }
    @keyframes frame4 { 42.1%,56%{opacity:1} 56.1%,100%{opacity:0} }
    @keyframes frame5 { 56.1%,70%{opacity:1} 70.1%,100%{opacity:0} }
    @keyframes frame6 { 70.1%,85%{opacity:1} 85.1%,100%{opacity:0} }
    @keyframes frame7 { 85.1%,100%{opacity:1} 100%{opacity:0} }
    .f1 { animation: frame1 12s infinite; opacity:0 }
    .f2 { animation: frame2 12s infinite; opacity:0 }
    .f3 { animation: frame3 12s infinite; opacity:0 }
    .f4 { animation: frame4 12s infinite; opacity:0 }
    .f5 { animation: frame5 12s infinite; opacity:0 }
    .f6 { animation: frame6 12s infinite; opacity:0 }
    .f7 { animation: frame7 12s infinite; opacity:0 }
    .cursor { animation: blink 1s step-end infinite }
  </style>

  <!-- Terminal window -->
  <rect width="620" height="420" rx="10" fill="#1a1b26"/>
  <!-- Title bar -->
  <rect width="620" height="36" rx="10" fill="#24283b"/>
  <rect y="26" width="620" height="10" fill="#24283b"/>
  <circle cx="20" cy="18" r="6" fill="#f7768e"/>
  <circle cx="40" cy="18" r="6" fill="#e0af68"/>
  <circle cx="60" cy="18" r="6" fill="#9ece6a"/>
  <text x="310" y="22" fill="#565f89" text-anchor="middle" font-size="12">keys see</text>

  <!-- === FRAME 1: Initial state, empty search === -->
  <g class="f1">
    <!-- Search bar -->
    <rect x="24" y="50" width="420" height="32" rx="8" fill="none" stroke="#7aa2f7" stroke-width="1.5"/>
    <text x="40" y="71" fill="#7aa2f7" font-weight="bold">🔍</text>
    <text x="62" y="71" fill="#565f89">Search keys...</text>
    <text x="148" y="71" fill="#c0caf5" class="cursor">_</text>

    <!-- Keys list -->
    <text x="30" y="112" fill="#7dcfff" font-weight="bold">&gt; </text>
    <text x="50" y="112" fill="#565f89">[ ] </text>
    <text x="80" y="112" fill="#9ece6a">● </text>
    <text x="98" y="112" fill="#7aa2f7" font-weight="bold">API_KEY</text>
    <text x="220" y="112" fill="#c0caf5">=</text>
    <text x="235" y="112" fill="#9ece6a">sk-proj-abc123</text>

    <text x="30" y="136" fill="transparent">  </text>
    <text x="50" y="136" fill="#565f89">[ ] </text>
    <text x="80" y="136" fill="#9ece6a">● </text>
    <text x="98" y="136" fill="#565f89">DB_HOST</text>
    <text x="220" y="136" fill="#565f89">=</text>
    <text x="235" y="136" fill="#565f89">localhost</text>

    <text x="30" y="160" fill="transparent">  </text>
    <text x="50" y="160" fill="#565f89">[ ] </text>
    <text x="80" y="160" fill="#e0af68">● </text>
    <text x="98" y="160" fill="#565f89">GITHUB_TOKEN</text>
    <text x="220" y="160" fill="#565f89">=</text>
    <text x="235" y="160" fill="#565f89">ghp_x7k92m</text>

    <text x="30" y="184" fill="transparent">  </text>
    <text x="50" y="184" fill="#565f89">[ ] </text>
    <text x="80" y="184" fill="#e0af68">● </text>
    <text x="98" y="184" fill="#565f89">OPENAI_KEY</text>
    <text x="220" y="184" fill="#565f89">=</text>
    <text x="235" y="184" fill="#565f89">sk-live-9f3e</text>

    <text x="30" y="208" fill="transparent">  </text>
    <text x="50" y="208" fill="#565f89">[ ] </text>
    <text x="80" y="208" fill="#f7768e">● </text>
    <text x="98" y="208" fill="#565f89">STRIPE_KEY</text>
    <text x="220" y="208" fill="#565f89">=</text>
    <text x="235" y="208" fill="#565f89">sk_test_4eC3</text>

    <!-- Help -->
    <text x="30" y="380" fill="#565f89" font-size="11">space select  S-tab/ctrl+y copy export  tab copy KEY=VAL  ctrl+e export .env  enter add key  esc quit</text>
  </g>

  <!-- === FRAME 2: Typed "key" in search === -->
  <g class="f2">
    <rect x="24" y="50" width="420" height="32" rx="8" fill="none" stroke="#7aa2f7" stroke-width="1.5"/>
    <text x="40" y="71" fill="#7aa2f7" font-weight="bold">🔍</text>
    <text x="62" y="71" fill="#c0caf5">key</text>
    <text x="88" y="71" fill="#c0caf5" class="cursor">_</text>

    <!-- Filtered list -->
    <text x="30" y="112" fill="#7dcfff" font-weight="bold">&gt; </text>
    <text x="50" y="112" fill="#565f89">[ ] </text>
    <text x="80" y="112" fill="#9ece6a">● </text>
    <text x="98" y="112" fill="#7aa2f7" font-weight="bold">API_KEY</text>
    <text x="220" y="112" fill="#c0caf5">=</text>
    <text x="235" y="112" fill="#9ece6a">sk-proj-abc123</text>

    <text x="30" y="136" fill="transparent">  </text>
    <text x="50" y="136" fill="#565f89">[ ] </text>
    <text x="80" y="136" fill="#e0af68">● </text>
    <text x="98" y="136" fill="#565f89">OPENAI_KEY</text>
    <text x="220" y="136" fill="#565f89">=</text>
    <text x="235" y="136" fill="#565f89">sk-live-9f3e</text>

    <text x="30" y="160" fill="transparent">  </text>
    <text x="50" y="160" fill="#565f89">[ ] </text>
    <text x="80" y="160" fill="#f7768e">● </text>
    <text x="98" y="160" fill="#565f89">STRIPE_KEY</text>
    <text x="220" y="160" fill="#565f89">=</text>
    <text x="235" y="160" fill="#565f89">sk_test_4eC3</text>

    <text x="30" y="380" fill="#565f89" font-size="11">space select  S-tab/ctrl+y copy export  tab copy KEY=VAL  ctrl+e export .env  enter add key  esc quit</text>
  </g>

  <!-- === FRAME 3: Cursor moved down to OPENAI_KEY === -->
  <g class="f3">
    <rect x="24" y="50" width="420" height="32" rx="8" fill="none" stroke="#7aa2f7" stroke-width="1.5"/>
    <text x="40" y="71" fill="#7aa2f7" font-weight="bold">🔍</text>
    <text x="62" y="71" fill="#c0caf5">key</text>
    <text x="88" y="71" fill="#c0caf5" class="cursor">_</text>

    <text x="30" y="112" fill="transparent">  </text>
    <text x="50" y="112" fill="#565f89">[ ] </text>
    <text x="80" y="112" fill="#9ece6a">● </text>
    <text x="98" y="112" fill="#565f89">API_KEY</text>
    <text x="220" y="112" fill="#565f89">=</text>
    <text x="235" y="112" fill="#565f89">sk-proj-abc123</text>

    <text x="30" y="136" fill="#7dcfff" font-weight="bold">&gt; </text>
    <text x="50" y="136" fill="#565f89">[ ] </text>
    <text x="80" y="136" fill="#e0af68">● </text>
    <text x="98" y="136" fill="#7aa2f7" font-weight="bold">OPENAI_KEY</text>
    <text x="220" y="136" fill="#c0caf5">=</text>
    <text x="235" y="136" fill="#9ece6a">sk-live-9f3e</text>

    <text x="30" y="160" fill="transparent">  </text>
    <text x="50" y="160" fill="#565f89">[ ] </text>
    <text x="80" y="160" fill="#f7768e">● </text>
    <text x="98" y="160" fill="#565f89">STRIPE_KEY</text>
    <text x="220" y="160" fill="#565f89">=</text>
    <text x="235" y="160" fill="#565f89">sk_test_4eC3</text>

    <text x="30" y="380" fill="#565f89" font-size="11">space select  S-tab/ctrl+y copy export  tab copy KEY=VAL  ctrl+e export .env  enter add key  esc quit</text>
  </g>

  <!-- === FRAME 4: Selected OPENAI_KEY with space === -->
  <g class="f4">
    <rect x="24" y="50" width="420" height="32" rx="8" fill="none" stroke="#7aa2f7" stroke-width="1.5"/>
    <text x="40" y="71" fill="#7aa2f7" font-weight="bold">🔍</text>
    <text x="62" y="71" fill="#c0caf5">key</text>
    <text x="88" y="71" fill="#c0caf5" class="cursor">_</text>

    <!-- 1 selected -->
    <text x="34" y="96" fill="#565f89" font-size="12">1 selected</text>

    <text x="30" y="122" fill="transparent">  </text>
    <text x="50" y="122" fill="#565f89">[ ] </text>
    <text x="80" y="122" fill="#9ece6a">● </text>
    <text x="98" y="122" fill="#565f89">API_KEY</text>
    <text x="220" y="122" fill="#565f89">=</text>
    <text x="235" y="122" fill="#565f89">sk-proj-abc123</text>

    <text x="30" y="146" fill="#7dcfff" font-weight="bold">&gt; </text>
    <text x="50" y="146" fill="#9ece6a" font-weight="bold">[x] </text>
    <text x="80" y="146" fill="#e0af68">● </text>
    <text x="98" y="146" fill="#7aa2f7" font-weight="bold">OPENAI_KEY</text>
    <text x="220" y="146" fill="#c0caf5">=</text>
    <text x="235" y="146" fill="#9ece6a">sk-live-9f3e</text>

    <text x="30" y="170" fill="transparent">  </text>
    <text x="50" y="170" fill="#565f89">[ ] </text>
    <text x="80" y="170" fill="#f7768e">● </text>
    <text x="98" y="170" fill="#565f89">STRIPE_KEY</text>
    <text x="220" y="170" fill="#565f89">=</text>
    <text x="235" y="170" fill="#565f89">sk_test_4eC3</text>

    <text x="30" y="380" fill="#565f89" font-size="11">space select  S-tab/ctrl+y copy export  tab copy KEY=VAL  ctrl+e export .env  enter add key  esc quit</text>
  </g>

  <!-- === FRAME 5: Also selected STRIPE_KEY (cursor moved down + space) === -->
  <g class="f5">
    <rect x="24" y="50" width="420" height="32" rx="8" fill="none" stroke="#7aa2f7" stroke-width="1.5"/>
    <text x="40" y="71" fill="#7aa2f7" font-weight="bold">🔍</text>
    <text x="62" y="71" fill="#c0caf5">key</text>
    <text x="88" y="71" fill="#c0caf5" class="cursor">_</text>

    <!-- 2 selected -->
    <text x="34" y="96" fill="#565f89" font-size="12">2 selected</text>

    <text x="30" y="122" fill="transparent">  </text>
    <text x="50" y="122" fill="#565f89">[ ] </text>
    <text x="80" y="122" fill="#9ece6a">● </text>
    <text x="98" y="122" fill="#565f89">API_KEY</text>
    <text x="220" y="122" fill="#565f89">=</text>
    <text x="235" y="122" fill="#565f89">sk-proj-abc123</text>

    <text x="30" y="146" fill="transparent">  </text>
    <text x="50" y="146" fill="#9ece6a" font-weight="bold">[x] </text>
    <text x="80" y="146" fill="#e0af68">● </text>
    <text x="98" y="146" fill="#565f89">OPENAI_KEY</text>
    <text x="220" y="146" fill="#565f89">=</text>
    <text x="235" y="146" fill="#565f89">sk-live-9f3e</text>

    <text x="30" y="170" fill="#7dcfff" font-weight="bold">&gt; </text>
    <text x="50" y="170" fill="#9ece6a" font-weight="bold">[x] </text>
    <text x="80" y="170" fill="#f7768e">● </text>
    <text x="98" y="170" fill="#7aa2f7" font-weight="bold">STRIPE_KEY</text>
    <text x="220" y="170" fill="#c0caf5">=</text>
    <text x="235" y="170" fill="#9ece6a">sk_test_4eC3</text>

    <text x="30" y="380" fill="#565f89" font-size="11">space select  S-tab/ctrl+y copy export  tab copy KEY=VAL  ctrl+e export .env  enter add key  esc quit</text>
  </g>

  <!-- === FRAME 6: Pressed tab → copied === -->
  <g class="f6">
    <rect x="24" y="50" width="420" height="32" rx="8" fill="none" stroke="#7aa2f7" stroke-width="1.5"/>
    <text x="40" y="71" fill="#7aa2f7" font-weight="bold">🔍</text>
    <text x="62" y="71" fill="#c0caf5">key</text>
    <text x="88" y="71" fill="#c0caf5" class="cursor">_</text>

    <!-- Copied flash -->
    <text x="34" y="96" fill="#e0af68" font-weight="bold" font-size="12">Copied 2 keys as KEY=VAL</text>

    <!-- 2 selected -->
    <text x="34" y="114" fill="#565f89" font-size="12">2 selected</text>

    <text x="30" y="140" fill="transparent">  </text>
    <text x="50" y="140" fill="#565f89">[ ] </text>
    <text x="80" y="140" fill="#9ece6a">● </text>
    <text x="98" y="140" fill="#565f89">API_KEY</text>
    <text x="220" y="140" fill="#565f89">=</text>
    <text x="235" y="140" fill="#565f89">sk-proj-abc123</text>

    <text x="30" y="164" fill="transparent">  </text>
    <text x="50" y="164" fill="#9ece6a" font-weight="bold">[x] </text>
    <text x="80" y="164" fill="#e0af68">● </text>
    <text x="98" y="164" fill="#565f89">OPENAI_KEY</text>
    <text x="220" y="164" fill="#565f89">=</text>
    <text x="235" y="164" fill="#565f89">sk-live-9f3e</text>

    <text x="30" y="188" fill="#7dcfff" font-weight="bold">&gt; </text>
    <text x="50" y="188" fill="#9ece6a" font-weight="bold">[x] </text>
    <text x="80" y="188" fill="#f7768e">● </text>
    <text x="98" y="188" fill="#7aa2f7" font-weight="bold">STRIPE_KEY</text>
    <text x="220" y="188" fill="#c0caf5">=</text>
    <text x="235" y="188" fill="#9ece6a">sk_test_4eC3</text>

    <text x="30" y="380" fill="#565f89" font-size="11">space select  S-tab/ctrl+y copy export  tab copy KEY=VAL  ctrl+e export .env  enter add key  esc quit</text>
  </g>

  <!-- === FRAME 7: Cleared search, back to full list === -->
  <g class="f7">
    <rect x="24" y="50" width="420" height="32" rx="8" fill="none" stroke="#7aa2f7" stroke-width="1.5"/>
    <text x="40" y="71" fill="#7aa2f7" font-weight="bold">🔍</text>
    <text x="62" y="71" fill="#565f89">Search keys...</text>
    <text x="148" y="71" fill="#c0caf5" class="cursor">_</text>

    <text x="30" y="112" fill="#7dcfff" font-weight="bold">&gt; </text>
    <text x="50" y="112" fill="#565f89">[ ] </text>
    <text x="80" y="112" fill="#9ece6a">● </text>
    <text x="98" y="112" fill="#7aa2f7" font-weight="bold">API_KEY</text>
    <text x="220" y="112" fill="#c0caf5">=</text>
    <text x="235" y="112" fill="#9ece6a">sk-proj-abc123</text>

    <text x="30" y="136" fill="transparent">  </text>
    <text x="50" y="136" fill="#565f89">[ ] </text>
    <text x="80" y="136" fill="#9ece6a">● </text>
    <text x="98" y="136" fill="#565f89">DB_HOST</text>
    <text x="220" y="136" fill="#565f89">=</text>
    <text x="235" y="136" fill="#565f89">localhost</text>

    <text x="30" y="160" fill="transparent">  </text>
    <text x="50" y="160" fill="#565f89">[ ] </text>
    <text x="80" y="160" fill="#e0af68">● </text>
    <text x="98" y="160" fill="#565f89">GITHUB_TOKEN</text>
    <text x="220" y="160" fill="#565f89">=</text>
    <text x="235" y="160" fill="#565f89">ghp_x7k92m</text>

    <text x="30" y="184" fill="transparent">  </text>
    <text x="50" y="184" fill="#9ece6a" font-weight="bold">[x] </text>
    <text x="80" y="184" fill="#e0af68">● </text>
    <text x="98" y="184" fill="#565f89">OPENAI_KEY</text>
    <text x="220" y="184" fill="#565f89">=</text>
    <text x="235" y="184" fill="#565f89">sk-live-9f3e</text>

    <text x="30" y="208" fill="transparent">  </text>
    <text x="50" y="208" fill="#9ece6a" font-weight="bold">[x] </text>
    <text x="80" y="208" fill="#f7768e">● </text>
    <text x="98" y="208" fill="#565f89">STRIPE_KEY</text>
    <text x="220" y="208" fill="#565f89">=</text>
    <text x="235" y="208" fill="#565f89">sk_test_4eC3</text>

    <text x="30" y="380" fill="#565f89" font-size="11">space select  S-tab/ctrl+y copy export  tab copy KEY=VAL  ctrl+e export .env  enter add key  esc quit</text>
  </g>
</svg>
